<?xml version="1.0"?>
<svg width="184" height="168" xmlns="http://www.w3.org/2000/svg" xmlns:svg="http://www.w3.org/2000/svg">
 <g class="layer">
  <title>Layer 1</title>
  <path d="m161.46,167.84l-0.16,0l-139.62,-0.93c-5.76,-0.04 -11.27,-2.37 -15.33,-6.48c-4.06,-4.11 -6.34,-9.67 -6.35,-15.47l0.81,-123.14c0.04,-5.8 2.35,-11.35 6.44,-15.44c4.08,-4.09 9.61,-6.38 15.37,-6.38l0.16,0l139.54,0.92c5.79,0.05 11.32,2.41 15.38,6.55c4.06,4.15 6.33,9.74 6.3,15.57l-0.73,122.97c-0.05,5.8 -2.36,11.35 -6.45,15.43c-4.08,4.09 -9.6,6.39 -15.36,6.4zm-135.28,-27.26l130.91,0.87l0.75,-114.2l-130.87,-0.89l-0.79,114.22z" fill="#fff" id="svg_1"/>
  <path d="m13.77,39.53l-0.68,105.43c-0.01,1.15 0.21,2.29 0.64,3.36c0.44,1.07 1.07,2.04 1.88,2.86s1.76,1.47 2.81,1.92c1.06,0.45 2.19,0.68 3.34,0.69l139.62,0.92c1.15,0.01 2.29,-0.21 3.36,-0.65c1.06,-0.44 2.03,-1.08 2.85,-1.9c0.81,-0.82 1.46,-1.78 1.91,-2.85c0.44,-1.07 0.67,-2.22 0.68,-3.38l0.68,-105.42l-157.09,-0.98z" fill="#ff282d" id="svg_2" stroke="#3d3dff" stroke-linecap="round" stroke-linejoin="round" stroke-width="0.5" transform="matrix(1 0 0 1 0 0)"/>
  <path d="m161.46,155.32l-139.7,-0.93c-2.48,-0.01 -4.85,-1.01 -6.6,-2.78c-1.74,-1.77 -2.72,-4.16 -2.72,-6.65l0.65,-105.43c0,-0.17 0.07,-0.34 0.19,-0.46c0.13,-0.13 0.29,-0.19 0.47,-0.19l157.08,1.02c0.17,0 0.34,0.07 0.46,0.2s0.2,0.29 0.2,0.46l-0.69,105.43c-0.03,2.47 -1.03,4.84 -2.78,6.58c-1.74,1.75 -4.1,2.73 -6.56,2.75zm-147.03,-115.18l-0.68,104.82c-0.01,1.07 0.19,2.12 0.59,3.11c0.4,0.99 0.99,1.89 1.73,2.64c0.74,0.76 1.63,1.37 2.6,1.78s2.03,0.63 3.09,0.64l139.65,0.92c2.12,0 4.17,-0.85 5.68,-2.36c1.51,-1.51 2.37,-3.56 2.38,-5.7l0.71,-104.82l-155.75,-1.03z" fill="#3d3dff" id="svg_3"/>
  <path d="m170.99,22.96c0.01,-1.16 -0.21,-2.3 -0.64,-3.37c-0.43,-1.08 -1.07,-2.05 -1.87,-2.87s-1.76,-1.48 -2.82,-1.93s-2.19,-0.68 -3.34,-0.69l-139.65,-0.92c-1.14,-0.01 -2.28,0.21 -3.34,0.65c-1.06,0.43 -2.02,1.07 -2.84,1.88s-1.46,1.77 -1.9,2.84c-0.45,1.06 -0.68,2.2 -0.69,3.35l0,17.58l157.09,1.03l0,-17.55z" fill="#f2f2f2" id="svg_4"/>
  <path d="m170.86,41.17l-157.09,-1.03c-0.17,0.01 -0.33,-0.05 -0.46,-0.16c-0.13,-0.12 -0.21,-0.28 -0.22,-0.45l0,-17.58c0,-1.25 0.25,-2.49 0.73,-3.64s1.18,-2.21 2.07,-3.08c0.89,-0.88 1.94,-1.57 3.09,-2.04c1.16,-0.46 2.4,-0.69 3.64,-0.67l139.7,0.92c2.49,0.03 4.86,1.04 6.61,2.83c1.74,1.78 2.72,4.18 2.71,6.69l0,17.55c0,0.1 -0.02,0.2 -0.06,0.29c-0.04,0.09 -0.1,0.17 -0.17,0.23c-0.08,0.06 -0.17,0.11 -0.26,0.13c-0.1,0.03 -0.2,0.03 -0.29,0.01zm-156.43,-2.35l155.77,1.03l0,-16.92c0.01,-2.13 -0.81,-4.18 -2.28,-5.7c-1.48,-1.53 -3.48,-2.42 -5.6,-2.47l-139.65,-0.92c-1.06,-0.01 -2.11,0.19 -3.09,0.59c-0.98,0.41 -1.87,1 -2.62,1.75c-0.76,0.75 -1.36,1.64 -1.77,2.62c-0.41,0.98 -0.63,2.04 -0.63,3.1l-0.13,16.92z" fill="#3d3dff" id="svg_5"/>
  <path d="m26.97,30.78c2.41,0 4.37,-1.97 4.37,-4.4c0,-2.43 -1.96,-4.4 -4.37,-4.4s-4.38,1.97 -4.38,4.4c0,2.43 1.96,4.4 4.38,4.4z" fill="#ff6777" id="svg_6"/>
  <path d="m26.97,31.44c-1.33,-0.03 -2.59,-0.57 -3.54,-1.5c-0.95,-0.95 -1.48,-2.24 -1.49,-3.58c0.01,-1.34 0.55,-2.62 1.49,-3.56c0.94,-0.94 2.21,-1.47 3.54,-1.48c1.32,0.01 2.59,0.54 3.52,1.48c0.94,0.95 1.47,2.22 1.48,3.56c0,0.66 -0.13,1.33 -0.38,1.94c-0.26,0.62 -0.64,1.18 -1.12,1.64c-0.93,0.94 -2.18,1.48 -3.5,1.5zm0,-8.8c-0.98,0 -1.92,0.39 -2.62,1.08c-0.69,0.7 -1.08,1.65 -1.08,2.64s0.39,1.93 1.08,2.63c0.34,0.35 0.75,0.63 1.2,0.81c0.45,0.19 0.93,0.29 1.42,0.29c0.48,0 0.96,-0.1 1.41,-0.29c0.45,-0.18 0.86,-0.46 1.2,-0.81c0.35,-0.34 0.63,-0.75 0.82,-1.2c0.19,-0.46 0.28,-0.94 0.28,-1.43c0.02,-0.49 -0.07,-0.98 -0.26,-1.44s-0.46,-0.86 -0.81,-1.2c-0.69,-0.71 -1.63,-1.12 -2.62,-1.13l-0.02,0.05z" fill="#3d3dff" id="svg_7"/>
  <path d="m44.4,30.89c2.42,0 4.38,-1.97 4.38,-4.4c0,-2.43 -1.96,-4.4 -4.38,-4.4s-4.37,1.97 -4.37,4.4c0,2.43 1.96,4.4 4.37,4.4z" fill="#00ffac" id="svg_8"/>
  <path d="m44.51,31.63c-0.69,0.01 -1.37,-0.11 -2,-0.38c-0.64,-0.26 -1.21,-0.65 -1.69,-1.14c-0.48,-0.5 -0.85,-1.08 -1.1,-1.73c-0.24,-0.64 -0.35,-1.33 -0.32,-2.02c0.04,-1.33 0.59,-2.6 1.55,-3.52c0.96,-0.91 2.24,-1.41 3.56,-1.39c1.34,0 2.62,0.54 3.57,1.49c0.95,0.96 1.48,2.25 1.48,3.6s-0.53,2.64 -1.48,3.6c-0.95,0.95 -2.23,1.49 -3.57,1.49zm0,-8.78c-0.96,-0.02 -1.89,0.33 -2.6,0.98c-0.71,0.66 -1.14,1.56 -1.2,2.53c-0.02,0.51 0.06,1.02 0.24,1.5c0.18,0.48 0.46,0.91 0.81,1.27s0.79,0.65 1.26,0.84s0.98,0.28 1.49,0.26c0.98,0 1.92,-0.39 2.62,-1.09c0.69,-0.69 1.09,-1.64 1.1,-2.63c0,-0.49 -0.1,-0.97 -0.29,-1.43s-0.46,-0.86 -0.8,-1.21c-0.35,-0.35 -0.76,-0.63 -1.21,-0.81c-0.45,-0.19 -0.93,-0.29 -1.42,-0.29l0,0.08z" fill="#3d3dff" id="svg_9"/>
  <path d="m61.87,31.02c2.41,0 4.37,-1.97 4.37,-4.4s-1.96,-4.4 -4.37,-4.4s-4.38,1.97 -4.38,4.4s1.96,4.4 4.38,4.4z" fill="#00cdff" id="svg_10"/>
  <g fill="#3d3dff" id="svg_11">
   <path d="m61.87,31.63c-0.67,-0.01 -1.33,-0.15 -1.94,-0.41c-0.61,-0.26 -1.16,-0.64 -1.63,-1.12c-0.46,-0.47 -0.82,-1.02 -1.07,-1.64s-0.37,-1.26 -0.37,-1.92c0.01,-1.34 0.54,-2.62 1.49,-3.56c0.94,-0.94 2.21,-1.47 3.54,-1.47c1.33,0 2.61,0.53 3.56,1.48s1.47,2.23 1.47,3.58s-0.53,2.63 -1.47,3.58s-2.23,1.48 -3.56,1.48l-0.02,0zm0,-8.81c-0.99,0 -1.93,0.39 -2.62,1.09c-0.7,0.7 -1.1,1.64 -1.1,2.63c-0.01,0.49 0.08,0.98 0.27,1.43c0.18,0.45 0.46,0.86 0.8,1.21c0.69,0.7 1.63,1.11 2.62,1.13c0.98,0 1.92,-0.39 2.62,-1.09c0.7,-0.69 1.09,-1.64 1.1,-2.63c-0.01,-0.98 -0.4,-1.92 -1.08,-2.63c-0.34,-0.35 -0.75,-0.63 -1.19,-0.82c-0.45,-0.19 -0.94,-0.29 -1.42,-0.29l0,-0.03z" id="svg_12"/>
   <path d="m162.32,32.34c-0.18,-0.01 -0.34,-0.08 -0.47,-0.21l-8.8,-8.83c-0.12,-0.13 -0.18,-0.3 -0.18,-0.47c0,-0.18 0.07,-0.34 0.2,-0.47c0.12,-0.12 0.29,-0.19 0.46,-0.18c0.18,0 0.35,0.07 0.47,0.2l8.66,8.83c0.12,0.12 0.19,0.28 0.19,0.46c0,0.17 -0.07,0.33 -0.19,0.46c-0.09,0.1 -0.21,0.17 -0.34,0.21z" id="svg_13"/>
   <path d="m153.47,32.29c-0.09,0 -0.17,-0.02 -0.25,-0.06c-0.09,-0.04 -0.16,-0.09 -0.22,-0.15c-0.06,-0.06 -0.11,-0.14 -0.14,-0.21c-0.04,-0.08 -0.06,-0.17 -0.06,-0.26c0,-0.08 0.02,-0.17 0.06,-0.25c0.03,-0.08 0.08,-0.15 0.14,-0.21l8.8,-8.72c0.12,-0.1 0.28,-0.14 0.44,-0.13s0.3,0.08 0.41,0.19c0.11,0.11 0.18,0.26 0.19,0.42s-0.03,0.31 -0.13,0.44l-8.79,8.73c-0.12,0.12 -0.28,0.2 -0.45,0.21z" id="svg_14"/>
   <path d="m144.81,23.43l-69.83,-0.47c-0.17,0 -0.34,-0.07 -0.46,-0.2c-0.12,-0.12 -0.19,-0.29 -0.19,-0.46c0,-0.18 0.07,-0.35 0.19,-0.47c0.12,-0.12 0.29,-0.19 0.46,-0.19l69.83,0.47c0.17,0 0.34,0.07 0.46,0.2c0.12,0.12 0.19,0.29 0.19,0.46c-0.01,0.17 -0.08,0.34 -0.2,0.46s-0.28,0.19 -0.45,0.2z" id="svg_15"/>
   <path d="m144.73,32.21l-69.8,-0.45c-0.17,0 -0.34,-0.07 -0.46,-0.19c-0.13,-0.13 -0.19,-0.3 -0.19,-0.47c0,-0.17 0.06,-0.34 0.19,-0.47c0.12,-0.12 0.29,-0.19 0.46,-0.19l69.83,0.45c0.16,0.01 0.32,0.08 0.44,0.2s0.18,0.29 0.18,0.46c0,0.17 -0.07,0.34 -0.19,0.46c-0.12,0.13 -0.29,0.2 -0.46,0.2z" id="svg_16"/>
  </g>
  <path d="m128.8,96.08c0,19.81 -16.45,35.87 -36.74,35.87c-20.28,0 -36.73,-16.07 -36.73,-35.87c0,-19.82 16.45,-35.88 36.73,-35.88c20.29,0 36.74,16.07 36.74,35.88z" fill="#88c9f9" id="svg_20" transform="matrix(1 0 0 1 0 0)"/>
  <path d="m109.7,62.97c-5.46,-2.18 -7.99,4.47 -12.43,3.18c-4.45,-1.31 -10.35,-4.19 -14.2,-0.59c-3.85,3.62 -4.73,6.94 0,6.79c4.73,-0.14 7.98,-5.63 10.35,-3.32c2.36,2.31 1.77,4.19 -3.85,4.91c-5.62,0.72 -11.69,1.58 -14.94,1.58c-3.26,0 -4,1.88 -1.79,3.9c2.22,2.03 -1.32,2.17 -5.02,4.2c-3.7,2.02 0.89,2.88 4,4.61c3.1,1.75 5.47,-0.42 6.79,-3.32c1.34,-2.89 7.05,-6.36 9.45,-5.93c2.39,0.44 2.39,1.6 1.94,3.62c-0.44,2.03 1.79,1.45 1.92,-0.86c0.15,-2.32 2.82,-4.05 4.88,-4.19c2.07,-0.15 3.85,2.74 1.49,4.19c-2.37,1.45 -4.73,2.59 -1.77,3.32c2.96,0.72 5.02,4.49 1.62,6.07c-3.4,1.6 -9.32,2.61 -11.99,1.31c-2.66,-1.31 -8.72,-3.18 -10.35,-2.17c-1.62,1.01 -2.51,2.05 -4.43,2.76c-1.92,0.71 -9.77,4.17 -9.92,8.65c-0.14,4.49 -0.29,9.55 2.82,9.69c3.1,0.15 10.64,-1.88 13.01,-3.75c2.36,-1.88 5.62,-1.45 6.66,0.72c1.04,2.17 0.3,3.47 -0.74,6.93c-1.04,3.47 0.67,5.2 2.33,8.24c1.65,3.03 2.99,4.76 2.99,6.93c0,2.17 2.37,4.34 5.92,0.72c3.55,-3.62 6.81,-10.7 8.28,-13.29c1.47,-2.61 2.66,-8.39 4.45,-9.54c1.77,-1.16 4.58,-3.9 2.51,-3.48c-2.07,0.44 -6.22,-0.14 -7.26,-3.03c-1.04,-2.89 -5.47,-8.38 -3.4,-8.96c2.07,-0.57 4.43,3.22 5.32,5.01c0.89,1.79 2.07,3.96 3.85,4.53c1.77,0.59 5.62,-3.86 6.81,-4.53c1.19,-0.67 0.3,-3.41 -2.07,-3.12c-2.36,0.29 -5.47,0 -5.47,-1.45s2.96,-3.32 5.32,-2.89c2.37,0.44 4.15,1.16 5.63,2.89c1.47,1.73 4.43,4.91 5.61,6.94c1.19,2.02 2.07,2.31 2.67,-1.31c0.59,-3.62 1.47,-4.76 2.07,-7.5c0.59,-2.76 -6.07,-23.27 -19.09,-28.47z" fill="#5c913b" id="svg_21"/>
 </g>
</svg>